<svg width="159" height="156" viewBox="0 0 159 156" fill="none" xmlns="http://www.w3.org/2000/svg">
<path d="M102.934 3.29014C102.351 3.10979 101.763 2.93406 101.171 2.76758L99.2207 9.50997C99.7572 9.66257 100.298 9.81981 100.83 9.98628L102.929 3.29014H102.934Z" fill="#42331A"/>
<path d="M140.041 39.6311L145.988 35.8391C145.657 35.3304 145.321 34.8217 144.981 34.3223L139.117 38.2438C139.43 38.7016 139.738 39.164 140.041 39.6311Z" fill="#42331A"/>
<path d="M127.355 15.8211C126.865 15.4512 126.375 15.0905 125.881 14.7344L121.715 20.3993C122.167 20.7276 122.62 21.0606 123.068 21.3981L127.355 15.8211Z" fill="#42331A"/>
<path d="M135.103 32.9117L140.57 28.463C140.183 27.9959 139.786 27.5288 139.385 27.0664L134.025 31.64C134.389 32.0608 134.748 32.4816 135.103 32.9117Z" fill="#42331A"/>
<path d="M134.335 21.7708C133.892 21.3453 133.449 20.9292 132.997 20.5176L128.201 25.6738C128.612 26.0484 129.018 26.4276 129.419 26.8114L134.335 21.7708Z" fill="#42331A"/>
<path d="M59.4917 9.50925L57.5418 2.77148C56.9541 2.93796 56.3663 3.11369 55.7832 3.29404L57.8824 9.99019C58.4188 9.82371 58.9553 9.66648 59.4964 9.51388L59.4917 9.50925Z" fill="#42331A"/>
<path d="M111.556 6.51705C110.991 6.26733 110.427 6.02686 109.858 5.79102L107.129 12.2606C107.642 12.4733 108.16 12.6953 108.668 12.9172L111.561 6.51705H111.556Z" fill="#42331A"/>
<path d="M67.6657 7.69741L66.5275 0.779297C65.9211 0.876409 65.3147 0.982771 64.7129 1.09376L66.0144 7.98413C66.5648 7.88239 67.1153 7.78528 67.6657 7.69741Z" fill="#42331A"/>
<path d="M94.0017 1.09376C93.3999 0.982771 92.7935 0.876409 92.1824 0.779297L91.0488 7.69741C91.5993 7.78528 92.1497 7.88239 92.6955 7.98413L94.0017 1.09376Z" fill="#42331A"/>
<path d="M12.7344 35.8144L18.6774 39.6157C18.9806 39.1486 19.2931 38.6815 19.6057 38.2237L13.7513 34.293C13.4061 34.797 13.0702 35.3057 12.739 35.8144H12.7344Z" fill="#42331A"/>
<path d="M4.64844 52.191L11.3192 54.5171C11.5057 53.9899 11.697 53.4673 11.8976 52.9494L5.28286 50.4707C5.06827 51.0395 4.85369 51.6129 4.64844 52.191Z" fill="#42331A"/>
<path d="M8.20388 43.7679L14.5574 46.8431C14.8046 46.3437 15.0565 45.8489 15.3131 45.3541L9.02956 42.1309C8.74967 42.6719 8.46978 43.2176 8.19922 43.7633L8.20388 43.7679Z" fill="#42331A"/>
<path d="M2.10352 60.9659L9.00748 62.4966C9.12876 61.9556 9.25938 61.4191 9.39466 60.8873L2.53268 59.1855C2.38341 59.7775 2.24346 60.374 2.10818 60.9706L2.10352 60.9659Z" fill="#42331A"/>
<path d="M144.16 46.8666L150.509 43.7775C150.238 43.2318 149.963 42.6954 149.683 42.1543L143.404 45.3821C143.661 45.8723 143.913 46.3671 144.16 46.8666Z" fill="#42331A"/>
<path d="M0.617188 69.9646L7.65176 70.6906C7.70774 70.1403 7.77305 69.5946 7.84302 69.0536L0.83177 68.1426C0.752468 68.7484 0.67783 69.3588 0.617188 69.9692V69.9646Z" fill="#42331A"/>
<path d="M149.705 62.5156L156.6 60.9572C156.464 60.3653 156.325 59.778 156.175 59.1953L149.309 60.8878C149.444 61.4289 149.574 61.97 149.7 62.5203L149.705 62.5156Z" fill="#42331A"/>
<path d="M147.387 54.5195L154.063 52.1935C153.858 51.62 153.648 51.0512 153.433 50.4824L146.818 52.9565C147.014 53.4744 147.206 53.997 147.392 54.5195H147.387Z" fill="#42331A"/>
<path d="M24.3926 21.7427L29.3047 26.788C29.7058 26.4041 30.1117 26.0249 30.5222 25.6504L25.7314 20.4941C25.2789 20.9057 24.8311 21.3265 24.3926 21.7474V21.7427Z" fill="#42331A"/>
<path d="M18.1562 28.4434L23.6188 32.8968C23.9733 32.4667 24.3372 32.0412 24.701 31.6204L19.3411 27.0469C18.9399 27.5093 18.5481 27.9718 18.1562 28.4388V28.4434Z" fill="#42331A"/>
<path d="M151.056 70.7128L158.086 69.9544C158.021 69.3532 157.951 68.7567 157.871 68.1602L150.855 69.048C150.925 69.603 150.991 70.1579 151.051 70.7175L151.056 70.7128Z" fill="#42331A"/>
<path d="M23.5085 123.457L18.0273 127.887C18.4145 128.359 18.811 128.826 19.2122 129.293L24.5768 124.724C24.2129 124.308 23.8584 123.882 23.5039 123.457H23.5085Z" fill="#42331A"/>
<path d="M114.662 15.9057C115.152 16.1786 115.637 16.4607 116.127 16.7427L119.728 10.7079C119.201 10.398 118.669 10.0928 118.137 9.79688L114.667 15.9057H114.662Z" fill="#42331A"/>
<path d="M121.571 136.191L125.727 141.865C126.222 141.509 126.712 141.148 127.197 140.783L122.919 135.201C122.471 135.539 122.024 135.867 121.566 136.195L121.571 136.191Z" fill="#42331A"/>
<path d="M114.516 140.654L117.968 146.772C118.505 146.476 119.032 146.175 119.559 145.866L115.962 139.826C115.482 140.108 114.997 140.381 114.512 140.654H114.516Z" fill="#42331A"/>
<path d="M128.062 130.939L132.853 136.095C133.301 135.688 133.744 135.272 134.187 134.856L129.294 129.797C128.888 130.185 128.478 130.565 128.062 130.944V130.939Z" fill="#42331A"/>
<path d="M99.0781 147.01L101 153.757C101.597 153.591 102.185 153.419 102.773 153.239L100.683 146.543C100.151 146.705 99.6146 146.862 99.0781 147.015V147.01Z" fill="#42331A"/>
<path d="M106.988 144.273L109.689 150.752C110.258 150.516 110.823 150.276 111.387 150.031L108.518 143.621C108.015 143.843 107.506 144.06 106.988 144.269V144.273Z" fill="#42331A"/>
<path d="M151.038 85.9343C150.977 86.4846 150.912 87.0349 150.842 87.5806L157.853 88.4916C157.932 87.8904 158.007 87.2846 158.072 86.6742L151.042 85.9297L151.038 85.9343Z" fill="#42331A"/>
<path d="M146.755 103.667L153.36 106.164C153.579 105.596 153.789 105.022 153.999 104.449L147.333 102.1C147.147 102.627 146.951 103.149 146.75 103.667H146.755Z" fill="#42331A"/>
<path d="M149.275 95.754L156.137 97.4512C156.287 96.8639 156.427 96.272 156.562 95.68L149.667 94.1309C149.541 94.6719 149.411 95.213 149.275 95.754Z" fill="#42331A"/>
<path d="M51.5887 12.2547L48.8645 5.78516C48.3 6.021 47.7356 6.26147 47.1758 6.50656L50.054 12.9114C50.5625 12.6848 51.0709 12.4674 51.5887 12.2547Z" fill="#42331A"/>
<path d="M90.9004 148.802L92.0153 155.724C92.6264 155.627 93.2328 155.526 93.8346 155.415L92.5471 148.52C92.0013 148.621 91.4508 148.714 90.9004 148.802Z" fill="#42331A"/>
<path d="M143.32 111.246L149.59 114.492C149.874 113.951 150.154 113.406 150.425 112.855L144.081 109.762C143.833 110.261 143.582 110.756 143.325 111.246H143.32Z" fill="#42331A"/>
<path d="M139.021 118.379L144.862 122.328C145.212 121.824 145.548 121.315 145.883 120.802L139.945 116.996C139.642 117.463 139.334 117.921 139.021 118.379Z" fill="#42331A"/>
<path d="M133.91 124.968L139.256 129.556C139.662 129.093 140.058 128.626 140.45 128.154L134.988 123.701C134.633 124.127 134.279 124.547 133.91 124.968Z" fill="#42331A"/>
<path d="M18.5906 116.736L12.6289 120.51C12.9601 121.023 13.3006 121.532 13.6412 122.041L19.5049 118.119C19.1923 117.661 18.8891 117.203 18.5906 116.736Z" fill="#42331A"/>
<path d="M8.96841 93.8367L2.06445 95.3581C2.19973 95.9546 2.33968 96.5466 2.48895 97.1385L9.3556 95.446C9.22031 94.9095 9.09436 94.3731 8.97308 93.832L8.96841 93.8367Z" fill="#42331A"/>
<path d="M14.4863 109.488L8.13281 112.564C8.40337 113.109 8.67393 113.655 8.95849 114.191L15.242 110.968C14.9855 110.478 14.7382 109.983 14.491 109.488H14.4863Z" fill="#42331A"/>
<path d="M11.2699 101.823L4.58984 104.131C4.7951 104.709 5.00501 105.282 5.2196 105.851L11.8343 103.377C11.6384 102.859 11.4518 102.341 11.2652 101.818L11.2699 101.823Z" fill="#42331A"/>
<path d="M44.0606 15.896L40.59 9.78711C40.0582 10.0831 39.5264 10.3883 39.0039 10.6981L42.6145 16.7283C43.095 16.4463 43.5801 16.1688 44.0653 15.896H44.0606Z" fill="#42331A"/>
<path d="M64.543 155.353C65.1447 155.464 65.7465 155.571 66.3529 155.672L67.5098 148.754C66.9594 148.662 66.4089 148.565 65.8584 148.463L64.543 155.353Z" fill="#42331A"/>
<path d="M7.63223 85.6367L0.597656 86.3535C0.662964 86.9593 0.732937 87.5651 0.807574 88.1709L7.82349 87.283C7.75352 86.7373 7.68821 86.187 7.63223 85.6367Z" fill="#42331A"/>
<path d="M38.8347 145.687C39.3665 146.001 39.8937 146.307 40.4301 146.607L43.9101 140.503C43.4203 140.23 42.9351 139.953 42.4547 139.666L38.8301 145.687H38.8347Z" fill="#42331A"/>
<path d="M47.0098 149.901C47.5695 150.151 48.1387 150.396 48.7031 150.632L51.4414 144.167C50.9236 143.95 50.4104 143.732 49.902 143.506L47.0098 149.906V149.901Z" fill="#42331A"/>
<path d="M55.6211 153.141C56.2042 153.321 56.792 153.497 57.3844 153.668L59.3436 146.93C58.8072 146.778 58.2707 146.616 57.7389 146.449L55.6211 153.136V153.141Z" fill="#42331A"/>
<path d="M24.2539 134.606C24.6924 135.027 25.1402 135.448 25.5881 135.859L30.3975 130.717C29.987 130.338 29.5812 129.959 29.1753 129.57L24.2539 134.606Z" fill="#42331A"/>
<path d="M31.2227 140.568C31.7125 140.938 32.1976 141.303 32.6967 141.659L36.8671 135.999C36.4146 135.671 35.9621 135.338 35.519 135L31.2273 140.572L31.2227 140.568Z" fill="#42331A"/>
<path d="M31.373 15.805L35.6694 21.3728C36.1125 21.0398 36.5603 20.7068 37.0082 20.3831L32.8518 14.709C32.3573 15.0651 31.8629 15.4304 31.373 15.8003V15.805Z" fill="#42331A"/>
</svg>
